<mxfile host="Electron" agent="Mozilla/5.0 (Windows NT 10.0; Win64; x64) AppleWebKit/537.36 (KHTML, like Gecko) draw.io/26.0.4 Chrome/128.0.6613.186 Electron/32.2.5 Safari/537.36" version="26.0.4">
  <diagram name="Page-1" id="EYn9lPKlorT9rFPQCNi2">
    <mxGraphModel dx="683" dy="459" grid="1" gridSize="10" guides="1" tooltips="1" connect="1" arrows="1" fold="1" page="1" pageScale="1" pageWidth="827" pageHeight="1169" math="0" shadow="0">
      <root>
        <mxCell id="0" />
        <mxCell id="1" parent="0" />
        <mxCell id="vuy8I3d3ThdNLC8oV1xK-4" value="" style="pointerEvents=1;verticalLabelPosition=bottom;shadow=0;dashed=0;align=center;html=1;verticalAlign=top;shape=mxgraph.electrical.waveforms.sine_wave;fontColor=#B85450;strokeColor=#6C8EBF;fillColor=none;" parent="1" vertex="1">
          <mxGeometry x="371.5" y="141.82" width="48.5" height="103.18" as="geometry" />
        </mxCell>
        <mxCell id="vuy8I3d3ThdNLC8oV1xK-5" value="" style="pointerEvents=1;verticalLabelPosition=bottom;shadow=0;dashed=0;align=center;html=1;verticalAlign=top;shape=mxgraph.electrical.waveforms.sine_wave;fontColor=#B85450;strokeColor=#6C8EBF;fillColor=none;strokeWidth=1;" parent="1" vertex="1">
          <mxGeometry x="420" y="141.82" width="48.5" height="103.18" as="geometry" />
        </mxCell>
        <mxCell id="4m3qHLkBoHp1KC_wKlsO-17" value="" style="endArrow=none;dashed=1;html=1;dashPattern=1 3;strokeWidth=1;rounded=0;strokeColor=#666666;" parent="1" edge="1">
          <mxGeometry width="50" height="50" relative="1" as="geometry">
            <mxPoint x="140" y="270" as="sourcePoint" />
            <mxPoint x="140" y="130" as="targetPoint" />
          </mxGeometry>
        </mxCell>
        <mxCell id="4m3qHLkBoHp1KC_wKlsO-18" value="" style="endArrow=none;dashed=1;html=1;dashPattern=1 3;strokeWidth=1;rounded=0;strokeColor=#666666;" parent="1" edge="1">
          <mxGeometry width="50" height="50" relative="1" as="geometry">
            <mxPoint x="170" y="270" as="sourcePoint" />
            <mxPoint x="170" y="130" as="targetPoint" />
          </mxGeometry>
        </mxCell>
        <mxCell id="4m3qHLkBoHp1KC_wKlsO-3" value="Tx" style="text;html=1;align=center;verticalAlign=middle;whiteSpace=wrap;rounded=0;fontColor=#6C8EBF;fontSize=10;" parent="1" vertex="1">
          <mxGeometry x="70" y="160" width="30" height="30" as="geometry" />
        </mxCell>
        <mxCell id="4m3qHLkBoHp1KC_wKlsO-5" value="" style="endArrow=none;html=1;rounded=0;fillColor=#dae8fc;strokeColor=#6C8EBF;" parent="1" edge="1">
          <mxGeometry width="50" height="50" relative="1" as="geometry">
            <mxPoint x="100" y="189.72" as="sourcePoint" />
            <mxPoint x="140" y="189.72" as="targetPoint" />
          </mxGeometry>
        </mxCell>
        <mxCell id="4m3qHLkBoHp1KC_wKlsO-6" value="" style="endArrow=none;html=1;rounded=0;fillColor=#dae8fc;strokeColor=#6c8ebf;" parent="1" edge="1">
          <mxGeometry width="50" height="50" relative="1" as="geometry">
            <mxPoint x="140" y="190" as="sourcePoint" />
            <mxPoint x="140" y="150" as="targetPoint" />
          </mxGeometry>
        </mxCell>
        <mxCell id="4m3qHLkBoHp1KC_wKlsO-7" value="" style="endArrow=none;html=1;rounded=0;fillColor=#dae8fc;strokeColor=#6c8ebf;" parent="1" edge="1">
          <mxGeometry width="50" height="50" relative="1" as="geometry">
            <mxPoint x="160" y="189.72" as="sourcePoint" />
            <mxPoint x="280" y="190" as="targetPoint" />
          </mxGeometry>
        </mxCell>
        <mxCell id="4m3qHLkBoHp1KC_wKlsO-8" value="" style="endArrow=none;html=1;rounded=0;fillColor=#dae8fc;strokeColor=#6c8ebf;" parent="1" edge="1">
          <mxGeometry width="50" height="50" relative="1" as="geometry">
            <mxPoint x="160" y="190" as="sourcePoint" />
            <mxPoint x="160" y="150" as="targetPoint" />
          </mxGeometry>
        </mxCell>
        <mxCell id="4m3qHLkBoHp1KC_wKlsO-9" value="" style="endArrow=none;html=1;rounded=0;fillColor=#dae8fc;strokeColor=#6c8ebf;" parent="1" edge="1">
          <mxGeometry width="50" height="50" relative="1" as="geometry">
            <mxPoint x="140" y="150" as="sourcePoint" />
            <mxPoint x="160" y="150" as="targetPoint" />
          </mxGeometry>
        </mxCell>
        <mxCell id="4m3qHLkBoHp1KC_wKlsO-10" value="" style="endArrow=none;html=1;rounded=0;fillColor=#f8cecc;strokeColor=#B85450;" parent="1" edge="1">
          <mxGeometry width="50" height="50" relative="1" as="geometry">
            <mxPoint x="100" y="235" as="sourcePoint" />
            <mxPoint x="170" y="234.62" as="targetPoint" />
          </mxGeometry>
        </mxCell>
        <mxCell id="4m3qHLkBoHp1KC_wKlsO-11" value="" style="endArrow=none;html=1;rounded=0;fillColor=#f8cecc;strokeColor=#b85450;" parent="1" edge="1">
          <mxGeometry width="50" height="50" relative="1" as="geometry">
            <mxPoint x="170" y="234.9" as="sourcePoint" />
            <mxPoint x="170" y="194.9" as="targetPoint" />
          </mxGeometry>
        </mxCell>
        <mxCell id="4m3qHLkBoHp1KC_wKlsO-12" value="" style="endArrow=none;html=1;rounded=0;fillColor=#f8cecc;strokeColor=#b85450;" parent="1" edge="1">
          <mxGeometry width="50" height="50" relative="1" as="geometry">
            <mxPoint x="190" y="234.62" as="sourcePoint" />
            <mxPoint x="280" y="235" as="targetPoint" />
          </mxGeometry>
        </mxCell>
        <mxCell id="4m3qHLkBoHp1KC_wKlsO-13" value="" style="endArrow=none;html=1;rounded=0;fillColor=#f8cecc;strokeColor=#b85450;" parent="1" edge="1">
          <mxGeometry width="50" height="50" relative="1" as="geometry">
            <mxPoint x="190" y="234.9" as="sourcePoint" />
            <mxPoint x="190" y="194.9" as="targetPoint" />
          </mxGeometry>
        </mxCell>
        <mxCell id="4m3qHLkBoHp1KC_wKlsO-14" value="" style="endArrow=none;html=1;rounded=0;fillColor=#f8cecc;strokeColor=#b85450;" parent="1" edge="1">
          <mxGeometry width="50" height="50" relative="1" as="geometry">
            <mxPoint x="170" y="194.9" as="sourcePoint" />
            <mxPoint x="190" y="194.9" as="targetPoint" />
          </mxGeometry>
        </mxCell>
        <mxCell id="4m3qHLkBoHp1KC_wKlsO-15" value="a)" style="text;html=1;align=center;verticalAlign=middle;resizable=0;points=[];autosize=1;strokeColor=none;fillColor=none;" parent="1" vertex="1">
          <mxGeometry x="60" y="120" width="30" height="30" as="geometry" />
        </mxCell>
        <mxCell id="4m3qHLkBoHp1KC_wKlsO-16" value="b)" style="text;html=1;align=center;verticalAlign=middle;resizable=0;points=[];autosize=1;strokeColor=none;fillColor=none;" parent="1" vertex="1">
          <mxGeometry x="310" y="120" width="30" height="30" as="geometry" />
        </mxCell>
        <mxCell id="4m3qHLkBoHp1KC_wKlsO-19" value="" style="endArrow=classicThin;startArrow=classicThin;html=1;rounded=0;startFill=1;endFill=1;" parent="1" edge="1">
          <mxGeometry width="50" height="50" relative="1" as="geometry">
            <mxPoint x="140" y="260" as="sourcePoint" />
            <mxPoint x="170" y="260" as="targetPoint" />
          </mxGeometry>
        </mxCell>
        <mxCell id="4m3qHLkBoHp1KC_wKlsO-20" value="&lt;span style=&quot;font-family: &amp;quot;Google Sans&amp;quot;, Arial, sans-serif; text-align: left; text-wrap: wrap;&quot;&gt;&lt;font style=&quot;color: rgb(0, 0, 0);&quot;&gt;Δ&lt;/font&gt;&lt;/span&gt;T" style="text;html=1;align=center;verticalAlign=middle;resizable=0;points=[];autosize=1;strokeColor=none;fillColor=none;fontSize=10;" parent="1" vertex="1">
          <mxGeometry x="134" y="233" width="40" height="30" as="geometry" />
        </mxCell>
        <mxCell id="4m3qHLkBoHp1KC_wKlsO-31" value="&lt;span style=&quot;font-family: &amp;quot;Google Sans&amp;quot;, Arial, sans-serif; text-align: left; text-wrap: wrap;&quot;&gt;&lt;font style=&quot;color: rgb(0, 0, 0);&quot;&gt;Δ&lt;/font&gt;&lt;/span&gt;&lt;span style=&quot;color: rgb(32, 33, 34); font-family: sans-serif; text-align: start; text-wrap: wrap; background-color: rgb(255, 255, 255);&quot;&gt;&lt;font&gt;φ&lt;/font&gt;&lt;/span&gt;" style="text;html=1;align=center;verticalAlign=middle;resizable=0;points=[];autosize=1;strokeColor=none;fillColor=none;fontSize=10;" parent="1" vertex="1">
          <mxGeometry x="410" y="220" width="40" height="30" as="geometry" />
        </mxCell>
        <mxCell id="4m3qHLkBoHp1KC_wKlsO-34" value="Tx" style="text;html=1;align=center;verticalAlign=middle;whiteSpace=wrap;rounded=0;fontColor=#6C8EBF;fontSize=10;" parent="1" vertex="1">
          <mxGeometry x="328" y="161" width="60" height="30" as="geometry" />
        </mxCell>
        <mxCell id="4m3qHLkBoHp1KC_wKlsO-37" value="" style="endArrow=none;dashed=1;html=1;dashPattern=1 3;strokeWidth=1;rounded=0;strokeColor=#666666;" parent="1" edge="1">
          <mxGeometry width="50" height="50" relative="1" as="geometry">
            <mxPoint x="400" y="250" as="sourcePoint" />
            <mxPoint x="400" y="190" as="targetPoint" />
          </mxGeometry>
        </mxCell>
        <mxCell id="4m3qHLkBoHp1KC_wKlsO-38" value="" style="endArrow=none;dashed=1;html=1;dashPattern=1 3;strokeWidth=1;rounded=0;strokeColor=#666666;" parent="1" edge="1">
          <mxGeometry width="50" height="50" relative="1" as="geometry">
            <mxPoint x="396" y="250" as="sourcePoint" />
            <mxPoint x="396" y="190" as="targetPoint" />
          </mxGeometry>
        </mxCell>
        <mxCell id="4m3qHLkBoHp1KC_wKlsO-39" value="Rx" style="text;html=1;align=center;verticalAlign=middle;resizable=0;points=[];autosize=1;strokeColor=none;fillColor=none;fontColor=#B85450;fontSize=10;" parent="1" vertex="1">
          <mxGeometry x="376" y="128" width="40" height="30" as="geometry" />
        </mxCell>
        <mxCell id="4m3qHLkBoHp1KC_wKlsO-40" value="" style="endArrow=none;html=1;rounded=0;" parent="1" edge="1">
          <mxGeometry width="50" height="50" relative="1" as="geometry">
            <mxPoint x="380" y="240" as="sourcePoint" />
            <mxPoint x="420" y="240" as="targetPoint" />
          </mxGeometry>
        </mxCell>
        <mxCell id="4m3qHLkBoHp1KC_wKlsO-41" value="" style="endArrow=classicThin;html=1;rounded=0;endFill=1;" parent="1" edge="1">
          <mxGeometry width="50" height="50" relative="1" as="geometry">
            <mxPoint x="380" y="240" as="sourcePoint" />
            <mxPoint x="396" y="240" as="targetPoint" />
          </mxGeometry>
        </mxCell>
        <mxCell id="4m3qHLkBoHp1KC_wKlsO-42" value="" style="endArrow=none;html=1;rounded=0;startArrow=classicThin;startFill=1;endFill=0;" parent="1" edge="1">
          <mxGeometry width="50" height="50" relative="1" as="geometry">
            <mxPoint x="400" y="240" as="sourcePoint" />
            <mxPoint x="416" y="240" as="targetPoint" />
          </mxGeometry>
        </mxCell>
        <mxCell id="4m3qHLkBoHp1KC_wKlsO-43" value="Rx" style="text;html=1;align=center;verticalAlign=middle;whiteSpace=wrap;rounded=0;fontColor=#B85450;fontSize=10;" parent="1" vertex="1">
          <mxGeometry x="70" y="205" width="30" height="30" as="geometry" />
        </mxCell>
        <mxCell id="4m3qHLkBoHp1KC_wKlsO-44" value="&amp;nbsp;&amp;nbsp;" style="text;html=1;align=center;verticalAlign=middle;resizable=0;points=[];autosize=1;strokeColor=none;fillColor=none;" parent="1" vertex="1">
          <mxGeometry x="450" y="140" width="30" height="30" as="geometry" />
        </mxCell>
        <mxCell id="4m3qHLkBoHp1KC_wKlsO-45" value="" style="endArrow=none;html=1;rounded=0;strokeWidth=0.5;fillColor=#f8cecc;strokeColor=#B85450;" parent="1" edge="1">
          <mxGeometry width="50" height="50" relative="1" as="geometry">
            <mxPoint x="392" y="156" as="sourcePoint" />
            <mxPoint x="396" y="150" as="targetPoint" />
          </mxGeometry>
        </mxCell>
        <mxCell id="4m3qHLkBoHp1KC_wKlsO-46" value="" style="endArrow=none;html=1;rounded=0;strokeWidth=0.5;fillColor=#dae8fc;strokeColor=#6C8EBF;" parent="1" edge="1">
          <mxGeometry width="50" height="50" relative="1" as="geometry">
            <mxPoint x="365" y="178" as="sourcePoint" />
            <mxPoint x="373" y="179" as="targetPoint" />
          </mxGeometry>
        </mxCell>
        <mxCell id="vuy8I3d3ThdNLC8oV1xK-7" value="" style="pointerEvents=1;verticalLabelPosition=bottom;shadow=0;dashed=0;align=center;html=1;verticalAlign=top;shape=mxgraph.electrical.waveforms.sine_wave;fontColor=#B85450;strokeColor=#B85450;fillColor=none;strokeWidth=1;" parent="1" vertex="1">
          <mxGeometry x="424.5" y="141.82" width="48.5" height="103.18" as="geometry" />
        </mxCell>
        <mxCell id="vuy8I3d3ThdNLC8oV1xK-6" value="" style="pointerEvents=1;verticalLabelPosition=bottom;shadow=0;dashed=0;align=center;html=1;verticalAlign=top;shape=mxgraph.electrical.waveforms.sine_wave;fontColor=#B85450;strokeColor=#B85450;fillColor=none;" parent="1" vertex="1">
          <mxGeometry x="376" y="141.82" width="48.5" height="103.18" as="geometry" />
        </mxCell>
      </root>
    </mxGraphModel>
  </diagram>
</mxfile>
